<svg width="221" height="150" viewBox="0 0 221 150" fill="none" xmlns="http://www.w3.org/2000/svg">
<path d="M77.4596 145.117C66.1134 145.117 55.7127 143.233 46.2576 139.466C36.8024 135.555 28.5837 130.194 21.6014 123.384C14.7646 116.43 9.45515 108.389 5.67308 99.261C1.89102 89.9884 0 79.9913 0 69.2699C0 58.2586 2.18196 48.1892 6.54588 39.0615C10.9098 29.9337 18.5845 22.5185 21.3832 19.6246C32.8914 7.72505 47.2059 3.3716 49.8284 2.79109C59.5852 0.63138 68.0205 0 78.0575 0L80.9715 7.54599C72.971 7.54599 69.9348 7.14459 61.193 8.88599C56.948 9.73162 43.3184 14.9809 36.1329 23.9781C31.0417 30.353 28.6564 34.7149 25.7471 42.9733C22.8379 51.2317 21.3832 59.8524 21.3832 68.8352C21.3832 76.659 22.4742 84.7725 24.6562 93.1758C26.8381 101.434 30.1838 109.113 34.6932 116.212C39.348 123.312 45.1666 129.035 52.1488 133.381C59.2766 137.728 67.7135 139.901 77.4596 139.901C84.1509 139.901 91.0605 138.597 98.1882 135.989C105.461 133.381 111.353 129.904 115.862 125.558V96.0011C115.862 91.3648 114.989 88.3222 113.244 86.8734C111.644 85.4245 107.862 84.193 101.898 83.1788L88.9075 80.8457L88.5876 80.7882V76.8763H143.038V80.7882L150.555 82.7441C144.591 83.7583 140.736 84.9899 138.991 86.4387C138.704 86.6989 138.442 87.0104 138.206 87.3734C137.129 89.0316 136.591 91.7626 136.591 95.5664V137.076L135.5 137.728C134.481 137.438 133.1 137.221 131.354 137.076C129.754 136.931 128.154 136.859 126.554 136.859C124.226 136.859 121.317 137.293 117.826 138.162C114.48 138.887 110.771 139.756 106.698 140.77C102.188 141.785 97.4609 142.726 92.5151 143.596C87.5694 144.61 82.5508 145.117 77.4596 145.117Z" fill="white"/>
<path d="M189.929 144.305C195.311 147.492 201.711 149.086 209.13 149.086C213.057 149.086 216.767 148.507 220.258 147.348V143.436C216.04 143.436 211.894 141.914 207.821 138.872C203.893 135.829 200.038 131.917 196.256 127.136C192.474 122.21 188.692 117.067 184.91 111.706C180.983 105.911 177.128 100.405 173.346 95.1892C169.709 89.9734 165.564 85.6993 160.909 82.367C156.254 78.8897 150.581 77.1511 143.889 77.1511V76.4991C144.689 75.6298 151.235 73.6739 157.199 70.6313C163.309 67.4438 168.182 63.3146 171.818 58.2437C175.455 53.0278 177.273 47.0876 177.273 40.4229C177.273 28.1077 171.964 18.328 161.345 11.0838C150.726 3.69466 135.598 0.000120541 115.96 0.000120541L78.0575 0L80.9715 7.54599H88.4675H108.105H113.124C126.361 7.54599 136.762 10.661 144.326 16.891C152.035 22.9762 155.89 29.4117 155.89 41.2922C155.89 48.1018 154.29 54.042 151.09 59.113C148.035 64.0391 143.526 67.8785 137.562 70.6313C131.743 73.3841 130.87 74.7605 122.288 74.7605H108.105H88.5876V76.8763H143.038V80.7882L150.555 82.7441C144.591 83.7583 140.736 84.9899 138.991 86.4387C138.704 86.6989 138.442 87.0104 138.206 87.3734C142.637 90.5086 146.568 94.4178 149.999 99.1011C154.072 104.462 158.29 110.04 162.654 115.835C167.018 121.341 171.309 126.702 175.528 131.917C179.892 136.988 184.692 141.118 189.929 144.305Z" fill="white"/>
</svg>
