<svg width="359" height="150" viewBox="0 0 359 150" fill="none" xmlns="http://www.w3.org/2000/svg">
<path fill-rule="evenodd" clip-rule="evenodd" d="M46.2576 139.466C55.7127 143.233 66.1134 145.117 77.4596 145.117C82.5508 145.117 87.5694 144.61 92.5151 143.596C97.4609 142.726 102.188 141.785 106.698 140.77C110.771 139.756 114.48 138.887 117.826 138.162C121.317 137.293 124.226 136.859 126.554 136.859C128.154 136.859 129.754 136.931 131.354 137.076C133.1 137.221 134.482 137.438 135.5 137.728L136.591 137.076V95.5664C136.591 91.7626 137.129 89.0316 138.206 87.3734C142.637 90.5086 146.568 94.4178 149.999 99.1011C154.072 104.462 158.29 110.04 162.654 115.835C167.018 121.341 171.309 126.702 175.528 131.917C179.892 136.988 184.692 141.118 189.929 144.305C195.311 147.493 201.711 149.086 209.13 149.086C213.057 149.086 216.767 148.507 220.258 147.348V143.436C216.04 143.436 211.894 141.914 207.821 138.872C203.893 135.829 200.038 131.917 196.256 127.136C192.474 122.21 188.692 117.067 184.91 111.706C180.983 105.911 177.128 100.405 173.346 95.1892C169.709 89.9734 165.563 85.6993 160.909 82.367C156.254 78.8897 150.581 77.1511 143.889 77.1511V76.4991C144.267 76.089 145.923 75.4371 148.194 74.5433C150.736 73.5425 154.049 72.2384 157.199 70.6313C163.309 67.4438 168.182 63.3146 171.818 58.2437C175.455 53.0278 177.273 47.0876 177.273 40.4229C177.273 28.1077 171.964 18.328 161.345 11.0838C150.726 3.69466 135.598 0.000120541 115.96 0.000120541L78.0575 0C68.0205 0 59.5852 0.63138 49.8284 2.79109C47.2059 3.3716 32.8914 7.72506 21.3832 19.6246C21.1535 19.8621 20.8909 20.1301 20.6001 20.427C17.3469 23.7473 10.5516 30.683 6.54588 39.0615C2.18196 48.1892 0 58.2586 0 69.2699C0 79.9913 1.89102 89.9884 5.67308 99.261C9.45515 108.389 14.7646 116.43 21.6014 123.384C28.5837 130.194 36.8024 135.555 46.2576 139.466ZM80.9715 7.54599C79.6149 7.54599 78.401 7.53445 77.2779 7.52377C71.7773 7.47147 68.4526 7.43986 61.193 8.88599C56.948 9.73162 43.3184 14.9809 36.1329 23.9781C31.0417 30.353 28.6564 34.7149 25.7471 42.9733C22.8379 51.2317 21.3832 59.8524 21.3832 68.8352C21.3832 76.659 22.4742 84.7725 24.6562 93.1758C26.8381 101.434 30.1838 109.113 34.6932 116.212C39.348 123.312 45.1666 129.035 52.1488 133.381C59.2766 137.728 67.7135 139.901 77.4596 139.901C84.1509 139.901 91.0605 138.597 98.1882 135.989C105.461 133.381 111.353 129.904 115.862 125.558V96.0011C115.862 91.3648 114.989 88.3222 113.244 86.8734C111.644 85.4245 107.862 84.193 101.898 83.1788L88.9075 80.8457L88.5876 80.7882V74.7605H108.105H122.288C129.356 74.7605 131.195 73.8271 134.873 71.9602C135.662 71.5602 136.535 71.117 137.562 70.6313C143.526 67.8785 148.035 64.039 151.09 59.113C154.29 54.042 155.89 48.1018 155.89 41.2922C155.89 29.4117 152.035 22.9762 144.326 16.891C136.762 10.661 126.361 7.54599 113.124 7.54599H108.105H80.9715Z" fill="white"/>
<path fill-rule="evenodd" clip-rule="evenodd" d="M175.347 70.205C174.611 71.9137 174.243 73.7537 174.243 75.7253C174.243 77.7756 174.611 79.6683 175.347 81.4032C176.083 83.1382 177.108 84.6497 178.422 85.9377C179.737 87.2258 181.248 88.2247 182.957 88.9344C184.692 89.6442 186.545 89.999 188.517 89.999C190.488 89.999 192.341 89.631 194.076 88.895C195.811 88.159 197.336 87.1338 198.65 85.8194C199.965 84.5051 200.99 82.9936 201.726 81.2849C202.488 79.55 202.869 77.6968 202.869 75.7253C202.869 73.7537 202.488 71.9137 201.726 70.205C200.99 68.4701 199.965 66.9454 198.65 65.6311C197.336 64.2904 195.811 63.2521 194.076 62.5161C192.341 61.7538 190.488 61.3726 188.517 61.3726C186.545 61.3726 184.692 61.7538 182.957 62.5161C181.248 63.2521 179.737 64.2904 178.422 65.6311C177.108 66.9454 176.083 68.4701 175.347 70.205ZM177.161 80.5752C176.53 79.0768 176.214 77.4733 176.214 75.7647C176.214 74.0823 176.517 72.492 177.121 70.9936C177.752 69.469 178.62 68.1283 179.724 66.9717C180.854 65.8151 182.168 64.9082 183.667 64.251C185.165 63.5676 186.782 63.2258 188.517 63.2258C190.225 63.2258 191.829 63.5544 193.327 64.2116C194.825 64.8688 196.14 65.7757 197.27 66.9323C198.4 68.0626 199.281 69.3901 199.912 70.9147C200.569 72.4131 200.898 74.0166 200.898 75.7253C200.898 77.4602 200.569 79.0768 199.912 80.5752C199.281 82.0735 198.4 83.3879 197.27 84.5182C196.14 85.6486 194.825 86.5423 193.327 87.1995C191.829 87.8304 190.212 88.1458 188.477 88.1458C186.795 88.1458 185.204 87.8304 183.706 87.1995C182.234 86.5423 180.933 85.6486 179.802 84.5182C178.672 83.3879 177.792 82.0735 177.161 80.5752Z" fill="white"/>
<path d="M227.92 63.7384C229.102 64.0801 230.101 64.4482 230.916 64.8425L231.665 63.3441C230.666 62.8184 229.484 62.3846 228.117 62.0429C226.776 61.7012 225.449 61.5303 224.134 61.5303C222.636 61.5566 221.295 61.8589 220.112 62.4372C218.956 62.9892 218.036 63.7647 217.352 64.7636C216.669 65.7625 216.327 66.9323 216.327 68.2729C216.327 69.3507 216.537 70.2707 216.958 71.033C217.405 71.7954 217.996 72.4525 218.732 73.0046C219.468 73.5303 220.283 73.9903 221.177 74.3846C222.071 74.7526 222.964 75.1075 223.858 75.4492C225.015 75.8698 226.106 76.343 227.131 76.8687C228.156 77.3945 228.997 78.0779 229.654 78.9191C230.312 79.734 230.64 80.8118 230.64 82.1524C230.64 83.5456 230.285 84.7022 229.576 85.6223C228.892 86.516 228.012 87.1863 226.934 87.6332C225.882 88.0801 224.791 88.3035 223.661 88.3035C222.688 88.3035 221.716 88.159 220.743 87.8698C219.771 87.5806 218.864 87.2258 218.022 86.8052C217.208 86.3846 216.511 85.964 215.933 85.5434L215.026 87.1206C215.525 87.4361 216.196 87.8304 217.037 88.3035C217.904 88.7504 218.903 89.1447 220.033 89.4864C221.19 89.8282 222.465 89.999 223.858 89.999C225.593 89.999 227.118 89.6704 228.432 89.0133C229.746 88.3561 230.772 87.4361 231.508 86.2532C232.244 85.044 232.612 83.6639 232.612 82.113C232.612 80.7986 232.388 79.6946 231.941 78.8008C231.521 77.9071 230.943 77.1579 230.206 76.5533C229.47 75.9487 228.642 75.4361 227.722 75.0155C226.829 74.5949 225.922 74.2138 225.002 73.872C223.845 73.4251 222.754 72.9651 221.729 72.492C220.704 71.9925 219.876 71.4011 219.245 70.7176C218.614 70.0079 218.299 69.1272 218.299 68.0758C218.299 66.6826 218.851 65.5259 219.955 64.6059C221.059 63.6858 222.531 63.2258 224.371 63.2258C225.554 63.2258 226.737 63.3967 227.92 63.7384Z" fill="white"/>
<path d="M267.47 89.6836V61.688H265.538V74.7001H248.662V61.688H246.73V89.6836H248.662V76.5139H265.538V89.6836H267.47Z" fill="white"/>
<path d="M285.135 66.0527L306.702 90.3539H306.781V61.688H304.927L304.966 85.5908L283.398 61.0966H283.28V89.6836H285.173L285.135 66.0527Z" fill="white"/>
<path d="M324.535 61.688H322.603V89.6836H324.535V61.688Z" fill="white"/>
<path d="M357.632 61.688H340.362V89.6836H358.184V87.8304H342.294V76.5139H356.094V74.6606H342.294V63.5413H357.632V61.688Z" fill="white"/>
</svg>
